<svg width="120" height="20" viewBox="0 0 120 20" fill="none" xmlns="http://www.w3.org/2000/svg">
<path d="M1.41561e-07 0.449999H3.75C5.88333 0.449999 7.28333 0.533332 7.95 0.699998C8.61667 0.866666 9.225 1.16667 9.775 1.6C10.3417 2.03333 10.7833 2.575 11.1 3.225C11.4167 3.875 11.575 4.60833 11.575 5.425C11.575 6.24167 11.4167 6.975 11.1 7.625C10.8 8.275 10.3583 8.81667 9.775 9.25C9.20833 9.66667 8.50833 9.96667 7.675 10.15C6.84167 10.3167 5.36667 10.4 3.25 10.4H2.15V18.75H1.41561e-07V0.449999ZM2.15 8.325H5C6.68333 8.35833 7.825 8.09167 8.425 7.525C9.04167 6.95833 9.35 6.25 9.35 5.4C9.35 3.5 7.95 2.55 5.15 2.55H2.15V8.325ZM25.7199 18.75H23.6699V12.25C23.6699 10.75 23.5949 9.73333 23.4449 9.2C23.3116 8.65 23.1033 8.19167 22.8199 7.825C22.5533 7.44167 22.2033 7.15833 21.7699 6.975C21.3533 6.79167 20.8366 6.7 20.2199 6.7C19.6199 6.7 19.0283 6.85 18.4449 7.15C17.8616 7.45 17.3616 7.86667 16.9449 8.4C16.5283 8.93333 16.2366 9.5 16.0699 10.1C15.9199 10.7 15.8449 11.9 15.8449 13.7V18.75H13.7699V5.125H15.8449V7.175C17.1949 5.575 18.7949 4.775 20.6449 4.775C21.6283 4.775 22.5199 5.03333 23.3199 5.55C24.1199 6.05 24.7199 6.75 25.1199 7.65C25.5199 8.53333 25.7199 9.9 25.7199 11.75V18.75ZM41.7037 12.3H29.7537C29.837 13.8 30.337 15.0083 31.2537 15.925C32.187 16.825 33.2954 17.275 34.5787 17.275C36.762 17.275 38.4287 16.2 39.5787 14.05L41.3287 14.95C40.5454 16.4 39.6204 17.475 38.5537 18.175C37.487 18.8583 36.212 19.2 34.7287 19.2C32.6787 19.2 30.987 18.5 29.6537 17.1C28.3204 15.6833 27.6537 13.9833 27.6537 12C27.6537 10.0167 28.3204 8.31667 29.6537 6.9C31.0037 5.48333 32.6704 4.775 34.6537 4.775C36.637 4.775 38.2954 5.45 39.6287 6.8C40.962 8.13333 41.6537 9.96667 41.7037 12.3ZM39.4037 10.475C39.1537 9.30833 38.587 8.4 37.7037 7.75C36.8204 7.1 35.8037 6.775 34.6537 6.775C32.3204 6.775 30.7704 8.00833 30.0037 10.475H39.4037ZM55.5385 18.75H53.4635V16.7C52.1135 18.3 50.5135 19.1 48.6635 19.1C47.6801 19.1 46.7885 18.85 45.9885 18.35C45.1885 17.8333 44.5885 17.1333 44.1885 16.25C43.7885 15.35 43.5885 13.975 43.5885 12.125V5.125H45.6385V11.625C45.6385 13.125 45.7051 14.15 45.8385 14.7C45.9885 15.2333 46.1968 15.6917 46.4635 16.075C46.7468 16.4417 47.0968 16.7167 47.5135 16.9C47.9468 17.0833 48.4635 17.175 49.0635 17.175C49.6801 17.175 50.2801 17.025 50.8635 16.725C51.4468 16.425 51.9468 16.0083 52.3635 15.475C52.7801 14.9417 53.0635 14.375 53.2135 13.775C53.3801 13.175 53.4635 11.975 53.4635 10.175V5.125H55.5385V18.75ZM78.4484 18.75H76.3484V11.325C76.3484 10.1417 76.2734 9.275 76.1234 8.725C75.9901 8.175 75.6818 7.71667 75.1984 7.35C74.7318 6.96667 74.1068 6.775 73.3234 6.775C72.5568 6.775 71.8318 7.025 71.1484 7.525C70.4651 8.025 69.9901 8.70833 69.7234 9.575C69.4568 10.425 69.3234 11.6917 69.3234 13.375V18.75H67.2984V11.775C67.2984 10.4083 67.2234 9.425 67.0734 8.825C66.9401 8.225 66.6318 7.73333 66.1484 7.35C65.6651 6.96667 65.0568 6.775 64.3234 6.775C63.5901 6.775 62.8901 7.00833 62.2234 7.475C61.5734 7.925 61.0901 8.525 60.7734 9.275C60.4568 10.0083 60.2984 11.2333 60.2984 12.95V18.75H58.2484V5.125H60.2984V7.05C61.4651 5.53333 62.9234 4.775 64.6734 4.775C65.6234 4.775 66.4818 5.03333 67.2484 5.55C68.0318 6.05 68.5901 6.76667 68.9234 7.7C69.4901 6.75 70.1984 6.025 71.0484 5.525C71.8984 5.025 72.7984 4.775 73.7484 4.775C75.0484 4.775 76.1568 5.23333 77.0734 6.15C77.9901 7.06667 78.4484 8.79167 78.4484 11.325V18.75ZM94.5354 18.75H92.5104V16.75C91.027 18.3833 89.3187 19.2 87.3854 19.2C85.452 19.2 83.7937 18.4917 82.4104 17.075C81.0437 15.6417 80.3604 13.9417 80.3604 11.975C80.3604 9.99167 81.052 8.3 82.4354 6.9C83.8187 5.48333 85.502 4.775 87.4854 4.775C89.4854 4.775 91.1604 5.58333 92.5104 7.2V5.125H94.5354V18.75ZM87.5354 17.275C88.9187 17.275 90.1104 16.775 91.1104 15.775C92.1104 14.775 92.6104 13.5333 92.6104 12.05C92.6104 10.55 92.1187 9.3 91.1354 8.3C90.152 7.28333 88.9437 6.775 87.5104 6.775C86.0937 6.775 84.8937 7.3 83.9104 8.35C82.927 9.38333 82.4354 10.6083 82.4354 12.025C82.4354 13.4417 82.9354 14.675 83.9354 15.725C84.9354 16.7583 86.1354 17.275 87.5354 17.275ZM106.901 9.95H99.7008V18.75H97.5508V0.449999H106.901V2.575H99.7008V7.825H106.901V9.95ZM109.435 -1.54972e-06C109.885 -1.54972e-06 110.26 0.158332 110.56 0.475C110.876 0.774999 111.035 1.15 111.035 1.6C111.035 2.03333 110.876 2.40833 110.56 2.725C110.26 3.025 109.885 3.175 109.435 3.175C109.001 3.175 108.626 3.01667 108.31 2.7C108.01 2.38333 107.86 2.01667 107.86 1.6C107.86 1.16667 108.01 0.791666 108.31 0.475C108.626 0.158332 109.001 -1.54972e-06 109.435 -1.54972e-06ZM110.485 18.75H108.41V5.125H110.485V18.75ZM119.189 6.925H116.489V16.475C116.489 16.825 116.539 17.0417 116.639 17.125C116.739 17.1917 116.989 17.225 117.389 17.225H118.589V19C117.789 19.1333 117.181 19.2 116.764 19.2C115.964 19.2 115.373 19.0083 114.989 18.625C114.606 18.225 114.414 17.6 114.414 16.75V6.925H112.064V5.125H114.414V-1.54972e-06H116.489V5.125H119.189V6.925Z" fill="white"/>
</svg>
